<svg t="1741989809054" class="icon" viewBox="0 0 1024 1024" version="1.1" xmlns="http://www.w3.org/2000/svg" p-id="2908" width="20" height="20"><path d="M463.658667 307.797333l180.053333 292.181334a18.56 18.56 0 0 1-1.152 21.077333c-21.333333 27.733333-43.050667 52.565333-61.269333 69.12 0 0-14.592 14.250667-23.850667 20.394667a73.514667 73.514667 0 0 1-45.184 14.762666c-18.005333 0-34.986667-5.248-48.64-15.701333-2.432-2.389333-13.141333-11.434667-21.888-19.968-54.442667-49.877333-144.384-180.010667-171.648-248.448-4.394667-9.941333-13.568-36.522667-14.08-50.346667 0-13.269333 2.901333-26.112 9.258667-38.442666 8.746667-15.189333 22.314667-27.050667 38.4-33.706667 11.178667-4.309333 44.714667-10.965333 45.696-10.965333 23.936-4.266667 57.6-7.466667 96.853333-9.088a19.754667 19.754667 0 0 1 17.493333 9.130666" fill="#ffffff" p-id="2909"></path><path d="M560.64 327.338667c-7.978667-12.885333 2.218667-29.098667 17.493333-28.458667 35.968 1.536 67.626667 4.224 91.178667 7.466667 0.512 0.512 42.24 7.125333 56.405333 14.762666 26.24 13.269333 42.282667 39.381333 42.282667 67.413334v2.346666c-0.469333 18.090667-16.512 56.576-17.493333 56.576-8.064 19.370667-21.717333 44.672-38.144 71.893334a19.584 19.584 0 0 1-33.194667 0.298666L560.64 327.338667z" fill="#ffffff" opacity=".4" p-id="2910"></path></svg>